<svg width="101" height="100" viewBox="0 0 101 100" fill="none" xmlns="http://www.w3.org/2000/svg">
<path d="M92.1667 46.25V28.75C92.1667 14.1667 86.3333 8.33334 71.75 8.33334H54.25C39.6667 8.33334 33.8333 14.1667 33.8333 28.75V33.3333H46.75C61.3333 33.3333 67.1667 39.1667 67.1667 53.75V66.6667H71.75C86.3333 66.6667 92.1667 60.8333 92.1667 46.25Z" stroke="black" stroke-width="3" stroke-linecap="round" stroke-linejoin="round"/>
<path d="M67.1667 71.25V53.75C67.1667 39.1667 61.3333 33.3333 46.75 33.3333H29.25C14.6667 33.3333 8.83334 39.1667 8.83334 53.75V71.25C8.83334 85.8333 14.6667 91.6667 29.25 91.6667H46.75C61.3333 91.6667 67.1667 85.8333 67.1667 71.25Z" stroke="black" stroke-width="3" stroke-linecap="round" stroke-linejoin="round"/>
<path d="M25.8337 62.5L33.9587 70.625L50.167 54.375" stroke="black" stroke-width="3" stroke-linecap="round" stroke-linejoin="round"/>
</svg>
